<svg width="150" height="24" viewBox="0 0 1502 245" fill="none" xmlns="http://www.w3.org/2000/svg">
<path d="M222.692 98.3318C247.546 98.3318 274.263 103.775 294.083 123.423C304.622 137.327 309.892 151.332 309.892 165.437V171.936C309.892 196.318 296.049 216.52 268.364 232.54C253.577 240.399 237.297 244.328 219.522 244.328H211.027C170.443 244.328 142.994 231.23 128.679 205.034C124.904 195.261 123.017 186.293 123.017 178.132C123.017 148.813 136.255 128.659 171.49 108.911C185.018 101.858 202.086 98.3318 222.692 98.3318Z" fill="#CB1800"/>
<path d="M417.3 71.6968C431.609 71.6968 444.144 90.5276 454.905 128.189C459.827 149.71 462.288 170.601 462.288 190.863V194.469C462.288 219.309 457.022 235.221 446.491 242.204C442.942 243.692 439.966 244.436 437.562 244.436H437.218C422.566 244.436 413.523 232.245 410.088 207.862C408.715 198.933 407.169 186.17 405.452 169.571C401.331 198.304 395.379 212.67 387.595 212.67C380.497 212.67 373.858 198.991 367.676 171.632V181.419C367.676 213.357 361.609 232.932 349.475 240.143C346.499 241.288 343.866 241.861 341.576 241.861C327.725 241.861 319.025 230.986 315.477 209.236C314.904 204.313 314.618 199.391 314.618 194.469C314.618 170.43 320.8 137.347 333.163 95.221C338.2 80.5685 346.327 73.0133 357.545 72.5554C370.252 72.5554 380.039 87.723 386.908 118.058C392.173 87.1506 402.304 71.6968 417.3 71.6968Z" fill="#282C5F"/>
<path d="M543.506 73.5856C561.593 73.5856 577.848 84.7467 592.272 107.069C599.942 122.866 603.776 138.778 603.776 154.804V162.188C603.776 189.89 593.703 212.842 573.556 231.043C562.795 239.972 550.947 244.436 538.012 244.436H531.83C502.296 244.436 482.321 229.555 471.904 199.792C469.156 188.688 467.783 178.5 467.783 169.228C467.783 135.916 480.604 108.042 506.246 85.6052C516.09 77.5922 528.511 73.5856 543.506 73.5856ZM518.437 129.734C519.124 132.825 520.898 134.829 523.76 135.744L527.022 135.916C534.234 134.542 539.958 129.105 544.193 119.604C545.224 117.085 545.739 114.223 545.739 111.018C545.51 104.493 542.934 101.002 538.012 100.544H537.153C529.598 101.002 523.645 107.355 519.295 119.604C518.38 122.008 517.922 124.297 517.922 126.472C517.922 127.617 518.093 128.704 518.437 129.734Z" fill="#282C5F"/>
<path d="M706.63 1.46777C739.942 1.46777 763.924 18.2953 778.576 51.9503C780.522 58.0173 781.953 64.714 782.869 72.0402C782.869 89.5546 773.482 102.776 754.709 111.705C750.817 113.193 747.211 113.937 743.891 113.937H743.204C734.161 113.937 721.969 106.21 706.63 90.7565C699.075 85.9487 693.466 83.5447 689.803 83.5447H686.197C676.81 83.5447 669.827 90.2986 665.248 103.806V107.584C667.423 119.947 672.746 126.129 681.217 126.129H683.449C685.739 126.129 694.611 122.294 710.064 114.624C711.896 114.166 713.613 113.937 715.216 113.937C728.151 113.937 735.821 122.065 738.225 138.32C735.706 157.208 727.235 166.652 712.812 166.652C708.462 166.652 699.819 162.302 686.884 153.602H682.591C680.645 153.602 678.985 155.949 677.611 160.642C677.611 164.191 682.476 178.443 692.207 203.398C692.207 206.488 692.436 208.892 692.893 210.609C692.893 226.063 684.136 236.881 666.622 243.063C664.561 243.978 662.272 244.436 659.754 244.436C647.963 244.436 635.657 236.995 622.836 222.114C616.54 211.811 613.392 200.078 613.392 186.914L618.543 140.037C618.543 136.488 615.395 119.146 609.099 88.0092C608.641 86.521 608.413 83.6592 608.413 79.4237C608.413 54.6976 625.984 32.5471 661.127 12.9723C677.84 5.30261 693.008 1.46777 706.63 1.46777Z" fill="#282C5F"/>
<path d="M834.853 73.0705C858.435 73.0705 873.545 83.4303 880.185 104.15C881.1 108.729 881.558 113.193 881.558 117.543C881.329 141.239 868.165 159.097 842.065 171.116C837.028 172.948 831.934 173.864 826.783 173.864C814.992 173.864 800.569 169.514 783.512 160.814C783.512 175.009 787.748 187.143 796.219 197.216C798.508 198.933 800.912 199.849 803.431 199.964H805.148C813.161 199.964 825.18 194.412 841.207 183.308C848.418 179.072 854.829 176.955 860.438 176.955C870.397 176.955 877.151 182.049 880.7 192.237C881.616 196.014 882.073 198.876 882.073 200.822V204.428C882.073 220.683 871.599 232.646 850.651 240.315C840.806 243.063 831.362 244.436 822.319 244.436H815.45C790.037 244.436 772.637 229.898 763.251 200.822C759.702 188.345 757.928 174.264 757.928 158.582C757.928 129.162 770.234 105.008 794.845 86.1204C807.552 77.4205 820.888 73.0705 834.853 73.0705ZM794.845 125.27C794.845 135.802 800.683 142.67 812.36 145.875H818.198C827.584 145.875 833.88 140.037 837.086 128.361V121.664C837.086 115.254 832.736 109.702 824.036 105.008C820.945 104.093 818.255 103.635 815.965 103.635C805.663 103.635 798.737 109.187 795.189 120.291C794.96 122.923 794.845 124.583 794.845 125.27Z" fill="#282C5F"/>
<path d="M921.91 5.07373H922.425C937.078 5.07373 947.094 13.3158 952.474 29.7998C954.306 36.2103 955.222 43.2504 955.222 50.9201V51.7786C955.222 67.8048 951.158 95.3927 943.03 134.542C942.801 135.573 942.63 137.576 942.515 140.552C942.515 145.246 944.576 162.302 948.697 191.722L949.383 199.448C949.383 210.552 946.064 221.885 939.424 233.447C934.273 240.773 928.778 244.436 922.94 244.436C910.463 244.436 901.934 236.996 897.356 222.114C896.211 216.848 895.638 212.155 895.638 208.034V206.145C895.638 197.903 897.813 181.362 902.163 156.521C902.507 153.43 902.679 150.74 902.679 148.451C902.679 144.788 898.844 119.604 891.174 72.8988C890.029 63.5121 889.457 57.445 889.457 54.6977V53.4957C889.457 53.2668 889.342 53.1523 889.114 53.1523L889.457 52.8089V51.4352C889.457 38.4998 893.75 26.4229 902.335 15.2046C908.746 8.45068 915.271 5.07373 921.91 5.07373Z" fill="#282C5F"/>
<path d="M997.805 5.07373H998.321C1012.97 5.07373 1022.99 13.3158 1028.37 29.7998C1030.2 36.2103 1031.12 43.2504 1031.12 50.9201V51.7786C1031.12 67.8048 1027.05 95.3927 1018.93 134.542C1018.7 135.573 1018.52 137.576 1018.41 140.552C1018.41 145.246 1020.47 162.302 1024.59 191.722L1025.28 199.448C1025.28 210.552 1021.96 221.885 1015.32 233.447C1010.17 240.773 1004.67 244.436 998.836 244.436C986.358 244.436 977.83 236.996 973.251 222.114C972.106 216.848 971.534 212.155 971.534 208.034V206.145C971.534 197.903 973.709 181.362 978.059 156.521C978.402 153.43 978.574 150.74 978.574 148.451C978.574 144.788 974.739 119.604 967.069 72.8988C965.925 63.5121 965.352 57.445 965.352 54.6977V53.4957C965.352 53.2668 965.238 53.1523 965.009 53.1523L965.352 52.8089V51.4352C965.352 38.4998 969.645 26.4229 978.231 15.2046C984.641 8.45068 991.166 5.07373 997.805 5.07373Z" fill="#282C5F"/>
<path d="M1114.4 73.5857C1132.48 73.5857 1148.74 84.7468 1163.16 107.069C1170.83 122.866 1174.67 138.778 1174.67 154.804V162.188C1174.67 189.89 1164.59 212.842 1144.44 231.043C1133.68 239.972 1121.84 244.436 1108.9 244.436H1102.72C1073.19 244.436 1053.21 229.555 1042.79 199.792C1040.05 188.688 1038.67 178.5 1038.67 169.228C1038.67 135.916 1051.49 108.042 1077.14 85.6053C1086.98 77.5922 1099.4 73.5857 1114.4 73.5857ZM1089.33 129.735C1090.01 132.825 1091.79 134.829 1094.65 135.744L1097.91 135.916C1105.12 134.542 1110.85 129.105 1115.08 119.604C1116.11 117.085 1116.63 114.224 1116.63 111.018C1116.4 104.493 1113.82 101.002 1108.9 100.544H1108.04C1100.49 101.002 1094.53 107.355 1090.18 119.604C1089.27 122.008 1088.81 124.297 1088.81 126.472C1088.81 127.617 1088.98 128.704 1089.33 129.735Z" fill="#282C5F"/>
<path d="M1258.8 244.436C1238.43 244.436 1222.34 233.332 1210.55 211.125C1191.67 172.204 1182.22 141.067 1182.22 117.715V115.826C1182.22 112.85 1182.62 108.786 1183.42 103.635C1188.57 84.5178 1198.19 74.9594 1212.27 74.9594C1225.21 74.9594 1236.6 81.5415 1246.44 94.7059C1252.97 105.237 1257.43 120.176 1259.83 139.522C1267.16 115.254 1274.6 103.12 1282.16 103.12C1289.83 103.12 1296.64 109.072 1302.59 120.977L1311 139.865C1311.8 135.744 1313.18 121.321 1315.12 96.5947C1318.21 80.5685 1328.4 72.2692 1345.69 71.6969H1350.32C1355.82 71.6969 1361.49 73.414 1367.32 76.8482C1383.58 88.7533 1391.71 111.991 1391.71 146.562C1391.71 161.444 1389.65 175.295 1385.52 188.116C1370.41 223.946 1352.79 241.861 1332.64 241.861H1331.61C1314.78 241.861 1301.33 228.067 1291.26 200.479C1283.24 229.784 1272.43 244.436 1258.8 244.436Z" fill="#282C5F"/>
<path d="M1457.81 72.5554H1462.11C1480.42 72.5554 1493.01 82.2856 1499.88 101.746C1500.91 105.867 1501.43 109.759 1501.43 113.422C1501.43 128.533 1496.73 138.606 1487.35 143.643C1485.75 144.444 1483.97 144.845 1482.03 144.845C1477.56 144.845 1472.35 142.556 1466.4 137.977C1464.68 136.946 1462.97 136.431 1461.25 136.431C1460.22 136.431 1459.13 136.603 1457.99 136.946C1455.01 137.977 1453.52 140.209 1453.52 143.643V144.673C1453.52 152.801 1461.48 159.784 1477.39 165.622C1485.17 169.399 1491.07 174.665 1495.08 181.419C1499.08 189.432 1501.08 196.587 1501.08 202.883C1501.08 217.993 1493.01 230.528 1476.87 240.487C1470.58 243.12 1464.97 244.436 1460.05 244.436H1459.02C1445.39 244.436 1432.17 238.484 1419.35 226.579C1412.83 219.596 1409.56 211.411 1409.56 202.024V201.681C1410.71 190.233 1414.83 184.51 1421.93 184.51C1425.59 184.51 1431.83 187.658 1440.64 193.954C1442.59 195.327 1444.42 196.014 1446.14 196.014C1446.6 196.014 1446.94 195.957 1447.17 195.843C1449.23 195.499 1450.55 193.553 1451.12 190.004V188.459C1451.12 182.621 1444.36 178.042 1430.86 174.722C1411.17 167.625 1401.09 153.373 1400.64 131.967C1400.64 114.452 1407.39 98.9414 1420.9 85.4336C1431.89 76.8482 1444.19 72.5554 1457.81 72.5554Z" fill="#282C5F"/>
<path d="M68.8046 0.609375H73.9559C102.116 0.609375 123.294 15.2619 137.488 44.5669C140.922 57.5023 142.64 68.1483 142.64 76.5048C142.64 108.214 131.307 133.341 108.641 151.885C99.4833 158.067 86.2045 162.302 68.8046 164.592C75.2151 180.274 78.4203 192.866 78.4203 202.368V204.256C78.4203 225.09 69.0908 238.484 50.4317 244.436H43.9068C22.0425 244.436 9.16429 226.579 5.27222 190.863V164.076C5.27222 156.178 5.84458 146.161 6.98931 134.027C2.98277 108.614 0.979492 90.9284 0.979492 80.9693C2.58211 39.8735 17.0629 14.804 44.4219 5.76065C53.8087 2.32647 61.9362 0.609375 68.8046 0.609375ZM63.1382 120.977L62.9665 125.785C63.3099 130.822 66 133.341 71.0368 133.341C76.8749 133.341 82.5413 128.475 88.036 118.745C90.0965 115.311 91.184 112.106 91.2985 109.13V104.837C91.184 99.5711 88.6084 96.9382 83.5716 96.9382C72.8111 97.9685 66 105.982 63.1382 120.977Z" fill="#282C5F"/>
<path d="M266.826 93.2221C238.794 89.7182 212.32 103.928 202.587 111.472C182.148 102.128 153.679 112.445 141.999 118.771C155.431 103.588 177.768 101.252 187.258 101.982C182.002 95.5579 170.955 97.3585 166.088 99.0618C176.016 92.054 189.691 94.682 195.288 96.872C190.616 79.9366 169.495 71.8093 159.519 69.8626L160.979 63.2927C187.842 65.6287 200.397 86.6522 203.317 96.872C210.909 85.1923 228.38 84.7057 236.167 85.9223C225.655 85.9223 217.187 92.7353 214.267 96.1418C225.947 86.7981 254.173 90.3021 266.826 93.2221Z" fill="#17912A" stroke="#17902A" stroke-width="1.45996" stroke-linejoin="round"/>
</svg>
